<svg width="13" height="14" viewBox="0 0 13 14" fill="none" xmlns="http://www.w3.org/2000/svg">
<path fill-rule="evenodd" clip-rule="evenodd" d="M12 6C12 7.64208 11.3404 9.13009 10.2716 10.2135L12.1904 12.3921C12.4094 12.6407 12.3854 13.0199 12.1367 13.2389C11.8881 13.4579 11.5089 13.4339 11.2899 13.1852L9.34764 10.98C8.39141 11.6241 7.23961 12 6 12C2.68629 12 0 9.31371 0 6C0 2.68629 2.68629 0 6 0C9.31371 0 12 2.68629 12 6ZM6 11C8.76142 11 11 8.76142 11 6C11 3.23858 8.76142 1 6 1C3.23858 1 1 3.23858 1 6C1 8.76142 3.23858 11 6 11Z" fill="#A7A8B6"/>
</svg>
